<?xml version="1.0" encoding="UTF-8"?>
<svg width="16px" height="16px" viewBox="0 0 16 16" version="1.1" xmlns="http://www.w3.org/2000/svg" xmlns:xlink="http://www.w3.org/1999/xlink">
    <g id="Page-1" stroke="none" stroke-width="1" fill="none" fill-rule="evenodd">
        <g transform="translate(-1.000000, 0.000000)" fill="#000000" id="Check-Ins">
            <path d="M12.7088808,6.5972645 L8.58543633,10.7200925 C8.22111347,11.0837989 7.63116933,11.0837989 7.26746292,10.7200925 L5.29111924,8.74436525 C4.92741283,8.38127528 4.92741283,7.79133115 5.29111924,7.42700828 C5.65544211,7.06330187 6.24538625,7.06330187 6.60847621,7.42700828 L7.92644962,8.74436525 L11.3915238,5.27990753 C11.7552302,4.91620112 12.3451743,4.91620112 12.7088808,5.27990753 C13.0725872,5.64361395 13.0725872,6.23355808 12.7088808,6.5972645 M8.99969177,0 C2.60030823,0 1,1.60030823 1,7.99969177 C1,14.4003082 2.60030823,16 8.99969177,16 C15.4003082,16 17,14.4003082 17,7.99969177 C17,1.60030823 15.4003082,0 8.99969177,0"></path>
        </g>
    </g>
</svg>