<?xml version="1.0" encoding="UTF-8"?>
<svg width="32px" height="32px" viewBox="0 0 32 32" version="1.1" xmlns="http://www.w3.org/2000/svg" xmlns:xlink="http://www.w3.org/1999/xlink">
    <!-- Generator: Sketch 49.3 (51167) - http://www.bohemiancoding.com/sketch -->
    <title>favicon-svg</title>
    <desc>Created with Sketch.</desc>
    <defs></defs>
    <g id="Page-1" stroke="none" stroke-width="1" fill="none" fill-rule="evenodd">
        <g transform="translate(-1.000000, 0.000000)" fill="#31323A" id="Accounts">
            <path d="M22.8667694,15.2263533 L24.5324215,13.9244076 C24.6828357,13.8060489 24.7222886,13.5927567 24.627355,13.4189174 L23.0480062,10.6868041 C22.9543055,10.5141976 22.7397804,10.4500867 22.567174,10.5141976 L20.6019264,11.3032556 C20.1913697,10.9876324 19.7487575,10.7274899 19.2679253,10.5289925 L18.9670969,8.43798883 C18.9436717,8.24812175 18.7784627,8.10633789 18.5799653,8.10633789 L15.4225005,8.10633789 C15.225236,8.10633789 15.0587941,8.24812175 15.0353689,8.43798883 L14.7357735,10.5289925 C14.2549412,10.7274899 13.812329,10.9950299 13.4017723,11.3032556 L11.4365248,10.5141976 C11.255288,10.4426893 11.0493932,10.5141976 10.9544596,10.6868041 L9.37634367,13.4189174 C9.27277981,13.5927567 9.32086303,13.8060489 9.47004431,13.9244076 L11.1356964,15.2263533 C11.1048738,15.4790984 11.0802158,15.7404739 11.0802158,15.9993835 C11.0802158,16.260759 11.1048738,16.5209016 11.1356964,16.7736467 L9.47004431,18.0768253 C9.32086303,18.195184 9.28017723,18.4084762 9.37634367,18.5810826 L10.9544596,21.3131959 C11.0493932,21.4870353 11.2626854,21.5499133 11.4365248,21.4870353 L13.4017723,20.6967444 C13.812329,21.0123676 14.2549412,21.273743 14.7357735,21.4710075 L15.0353689,23.5632441 C15.0587941,23.7531112 15.225236,23.894895 15.4225005,23.894895 L18.5799653,23.894895 C18.7784627,23.894895 18.9436717,23.7531112 18.9670969,23.5632441 L19.2679253,21.4710075 C19.7487575,21.273743 20.1913697,21.0049701 20.6019264,20.6967444 L22.567174,21.4870353 C22.7484107,21.5573107 22.9543055,21.4870353 23.0480062,21.3131959 L24.627355,18.5810826 C24.7222886,18.4084762 24.6828357,18.195184 24.5324215,18.0768253 L22.8667694,16.7736467 C22.8988249,16.5209016 22.92225,16.2681564 22.92225,15.9993835 C22.92225,15.7318436 22.8988249,15.4790984 22.8667694,15.2263533 M33,15.9993835 C33,28.8006165 29.8006165,32 16.9993835,32 C4.19938355,32 1,28.8006165 1,15.9993835 C1,3.20061645 4.19938355,0 16.9993835,0 C29.8006165,0 33,3.20061645 33,15.9993835 M20.0545174,15.9993835 C20.0545174,17.6847621 18.6835292,19.0545174 16.9993835,19.0545174 C15.3152379,19.0545174 13.9454826,17.6847621 13.9454826,15.9993835 C13.9454826,14.3164708 15.3152379,12.9454826 16.9993835,12.9454826 C18.6835292,12.9454826 20.0545174,14.3164708 20.0545174,15.9993835"></path>
        </g>
    </g>
</svg>