<?xml version="1.0" encoding="UTF-8"?>
<svg width="16px" height="16px" viewBox="0 0 16 16" version="1.1" xmlns="http://www.w3.org/2000/svg" xmlns:xlink="http://www.w3.org/1999/xlink">
    <g id="Page-1" stroke="none" stroke-width="1" fill="none" fill-rule="evenodd">
        <g transform="translate(-1.000000, 0.000000)" fill="#000000" id="Registrations">
            <path d="M13.0610462,11.3979455 C13.0610462,11.6157916 12.8844308,11.7917916 12.6672,11.7917916 L8.17796923,11.7917916 L9.75396923,10.0305609 L12.6672,10.0305609 C12.8844308,10.0305609 13.0610462,10.2071763 13.0610462,10.424407 L13.0610462,11.3979455 Z M6.68873846,11.4440993 L5.07150769,11.800407 C4.99704615,11.8170224 4.92935385,11.7542532 4.93981538,11.6797916 L5.16196923,10.0348686 C5.18658462,9.85209933 5.30843077,9.59056087 5.43273846,9.45394548 L8.53858462,6.02871471 L10.3336615,7.68963779 L7.24381538,11.1222532 C7.11950769,11.2594839 6.86904615,11.4040993 6.68873846,11.4440993 Z M9.64750769,4.82502241 C9.94166154,4.50317625 10.4407385,4.47979164 10.7638154,4.77271471 L11.3976615,5.34686856 C11.7232,5.64163779 11.7472,6.14379164 11.4518154,6.46809933 L10.7705846,7.21640702 L8.97673846,5.55671471 L9.64750769,4.82502241 Z M8.99950769,0.167791637 C2.59950769,0.167791637 0.999507692,1.76840702 0.999507692,8.16779164 C0.999507692,14.5677916 2.59950769,16.1677916 8.99950769,16.1677916 C15.3995077,16.1677916 16.9995077,14.5677916 16.9995077,8.16779164 C16.9995077,1.76840702 15.3995077,0.167791637 8.99950769,0.167791637 Z"></path>
        </g>
    </g>
</svg>