<?xml version="1.0" encoding="UTF-8"?>
<svg width="32px" height="32px" viewBox="0 0 32 32" version="1.1" xmlns="http://www.w3.org/2000/svg" xmlns:xlink="http://www.w3.org/1999/xlink">
    <!-- Generator: Sketch 49.3 (51167) - http://www.bohemiancoding.com/sketch -->
    <title>favicon-svg</title>
    <desc>Created with Sketch.</desc>
    <defs></defs>
    <g id="Page-1" stroke="none" stroke-width="1" fill="none" fill-rule="evenodd">
        <g transform="translate(-1.000000, 0.000000)" fill="#31323A" id="Groups">
            <path d="M24.8780308,20.9240392 C24.8780308,22.5719818 23.5352615,23.9067297 21.8774154,23.9067297 C20.6343385,23.9067297 19.5684923,23.1567751 19.1118769,22.0875087 L14.8804923,22.0875087 C14.4251077,23.1567751 13.3592615,23.9067297 12.1161846,23.9067297 C10.4583385,23.9067297 9.11433846,22.5719818 9.11433846,20.9240392 C9.11433846,19.6896115 9.87003077,18.6301324 10.9469538,18.1762447 L10.9469538,13.9689137 C9.87003077,13.5162495 9.11433846,12.4567704 9.11433846,11.2211192 C9.11433846,9.5744 10.4583385,8.23842867 12.1161846,8.23842867 C13.3592615,8.23842867 14.4251077,8.98838327 14.8804923,10.0588731 L19.1192615,10.0588731 C19.5746462,8.98838327 20.6417231,8.23842867 21.8835692,8.23842867 C23.5414154,8.23842867 24.8854154,9.5744 24.8854154,11.2211192 C24.8854154,12.4592172 24.1272615,13.5211431 23.0466462,13.972584 L23.0466462,18.1762447 C24.1235692,18.6301324 24.8780308,19.6896115 24.8780308,20.9240392 M16.9998769,0.16877037 C4.19987692,0.16877037 0.999876923,3.34965448 0.999876923,16.0731909 C0.999876923,28.7967274 4.19987692,31.9776115 16.9998769,31.9776115 C29.7998769,31.9776115 32.9998769,28.7967274 32.9998769,16.0731909 C32.9998769,3.34965448 29.7998769,0.16877037 16.9998769,0.16877037 M19.1192615,12.3845888 L14.8804923,12.3845888 C14.5764923,13.0966174 14.0029538,13.6679532 13.2854154,13.9689137 L13.2854154,18.1762447 C14.0029538,18.4772053 14.5764923,19.048541 14.8804923,19.7617931 L19.1118769,19.7617931 C19.4171077,19.048541 19.9906462,18.4784287 20.7069538,18.1762447 L20.7069538,13.9664669 C19.9943385,13.6630595 19.4220308,13.0941706 19.1192615,12.3845888"></path>
        </g>
    </g>
</svg>