<?xml version="1.0" encoding="UTF-8"?>
<svg width="16px" height="16px" viewBox="0 0 16 16" version="1.1" xmlns="http://www.w3.org/2000/svg" xmlns:xlink="http://www.w3.org/1999/xlink">
    <g id="Page-1" stroke="none" stroke-width="1" fill="none" fill-rule="evenodd">
        <g transform="translate(-1.000000, 0.000000)" fill="#000000" id="Services">
            <path d="M13.0194019,5.80133571 C13.0194019,6.01594811 12.8453752,6.18997478 12.6307628,6.18997478 L7.51942107,6.18997478 C7.30480867,6.18997478 7.130782,6.01594811 7.130782,5.80133571 L7.130782,5.0455803 C7.130782,4.83035297 7.30480867,4.65694123 7.51942107,4.65694123 L12.6307628,4.65694123 C12.8453752,4.65694123 13.0194019,4.83035297 13.0194019,5.0455803 L13.0194019,5.80133571 Z M13.0194019,8.55993519 C13.0194019,8.77454759 12.8453752,8.94857427 12.6307628,8.94857427 L7.51942107,8.94857427 C7.30480867,8.94857427 7.130782,8.77454759 7.130782,8.55993519 L7.130782,7.80417978 C7.130782,7.58956739 7.30480867,7.41554071 7.51942107,7.41554071 L12.6307628,7.41554071 C12.8453752,7.41554071 13.0194019,7.58956739 13.0194019,7.80417978 L13.0194019,8.55993519 Z M13.0194019,11.3185347 C13.0194019,11.5331471 12.8453752,11.7071738 12.6307628,11.7071738 L7.51942107,11.7071738 C7.30480867,11.7071738 7.130782,11.5331471 7.130782,11.3185347 L7.130782,10.5627793 C7.130782,10.3481669 7.30480867,10.1741402 7.51942107,10.1741402 L12.6307628,10.1741402 C12.8453752,10.1741402 13.0194019,10.3481669 13.0194019,10.5627793 L13.0194019,11.3185347 Z M5.36099838,6.27176117 C4.89241773,6.27176117 4.51300268,5.89173119 4.51300268,5.42315054 C4.51300268,4.95518482 4.89241773,4.57515484 5.36099838,4.57515484 C5.82957903,4.57515484 6.20960901,4.95518482 6.20960901,5.42315054 C6.20960901,5.89173119 5.82957903,6.27176117 5.36099838,6.27176117 Z M5.36099838,9.03036065 C4.89241773,9.03036065 4.51300268,8.65033067 4.51300268,8.18236496 C4.51300268,7.7137843 4.89241773,7.33375433 5.36099838,7.33375433 C5.82957903,7.33375433 6.20960901,7.7137843 6.20960901,8.18236496 C6.20960901,8.65033067 5.82957903,9.03036065 5.36099838,9.03036065 Z M5.36099838,11.7889601 C4.89241773,11.7889601 4.51300268,11.4095451 4.51300268,10.9409644 C4.51300268,10.4723838 4.89241773,10.0923538 5.36099838,10.0923538 C5.82957903,10.0923538 6.20960901,10.4723838 6.20960901,10.9409644 C6.20960901,11.4095451 5.82957903,11.7889601 5.36099838,11.7889601 Z M8.99957019,0.167913978 C2.59993915,0.167913978 0.999877658,1.76797547 0.999877658,8.16822145 C0.999877658,14.5678525 2.59993915,16.167914 8.99957019,16.167914 C15.3998162,16.167914 16.9998777,14.5678525 16.9998777,8.16822145 C16.9998777,1.76797547 15.3998162,0.167913978 8.99957019,0.167913978 Z"></path>
        </g>
    </g>
</svg>