<?xml version="1.0" encoding="UTF-8"?>
<svg width="32px" height="32px" viewBox="0 0 32 32" version="1.1" xmlns="http://www.w3.org/2000/svg" xmlns:xlink="http://www.w3.org/1999/xlink">
    <!-- Generator: Sketch 49.3 (51167) - http://www.bohemiancoding.com/sketch -->
    <title>favicon-svg</title>
    <desc>Created with Sketch.</desc>
    <defs></defs>
    <g id="Page-1" stroke="none" stroke-width="1" fill="none" fill-rule="evenodd">
        <g transform="translate(-1.000000, 0.000000)" fill="#31323A" id="Resources">
            <path d="M24.3569231,13.864801 C24.3569231,14.3933171 23.9261538,14.821513 23.3944615,14.821513 L19.1655385,14.821513 C18.6350769,14.821513 18.2030769,14.3933171 18.2030769,13.864801 L18.2030769,9.66114026 C18.2030769,9.13384755 18.6350769,8.7044282 19.1655385,8.7044282 L23.3944615,8.7044282 C23.9261538,8.7044282 24.3569231,9.13384755 24.3569231,9.66114026 L24.3569231,13.864801 Z M24.3569231,22.4287197 C24.3569231,22.9572358 23.9261538,23.3854318 23.3944615,23.3854318 L19.1655385,23.3854318 C18.6350769,23.3854318 18.2030769,22.9572358 18.2030769,22.4287197 L18.2030769,18.225059 C18.2030769,17.6977663 18.6350769,17.268347 19.1655385,17.268347 L23.3944615,17.268347 C23.9261538,17.268347 24.3569231,17.6977663 24.3569231,18.225059 L24.3569231,22.4287197 Z M15.7415385,13.864801 C15.7415385,14.3933171 15.3107692,14.821513 14.7790769,14.821513 L10.5501538,14.821513 C10.0196923,14.821513 9.58769231,14.3933171 9.58769231,13.864801 L9.58769231,9.66114026 C9.58769231,9.13384755 10.0196923,8.7044282 10.5501538,8.7044282 L14.7790769,8.7044282 C15.3107692,8.7044282 15.7415385,9.13384755 15.7415385,9.66114026 L15.7415385,13.864801 Z M15.7415385,22.4287197 C15.7415385,22.9572358 15.3107692,23.3854318 14.7790769,23.3854318 L10.5501538,23.3854318 C10.0196923,23.3854318 9.58769231,22.9572358 9.58769231,22.4287197 L9.58769231,18.225059 C9.58769231,17.6977663 10.0196923,17.268347 10.5501538,17.268347 L14.7790769,17.268347 C15.3107692,17.268347 15.7415385,17.6977663 15.7415385,18.225059 L15.7415385,22.4287197 Z M16.9723077,0.168648029 C4.19446154,0.168648029 0.999384615,3.34341505 0.999384615,16.04493 C0.999384615,28.7476683 4.19446154,31.9224354 16.9723077,31.9224354 C29.7501538,31.9224354 32.9452308,28.7476683 32.9452308,16.04493 C32.9452308,3.34341505 29.7501538,0.168648029 16.9723077,0.168648029 Z"></path>
        </g>
    </g>
</svg>