<?xml version="1.0" encoding="UTF-8"?>
<svg width="16px" height="16px" viewBox="0 0 16 16" version="1.1" xmlns="http://www.w3.org/2000/svg" xmlns:xlink="http://www.w3.org/1999/xlink">
    <g id="Page-1" stroke="none" stroke-width="1" fill="none" fill-rule="evenodd">
        <g transform="translate(-1.000000, 0.000000)" fill="#000000" id="Groups">
            <path d="M12.9389538,10.6087704 C12.9389538,11.4376934 12.2675692,12.1090781 11.4386462,12.1090781 C10.8171077,12.1090781 10.2841846,11.7318473 10.0558769,11.1940011 L7.94018462,11.1940011 C7.71249231,11.7318473 7.17956923,12.1090781 6.55803077,12.1090781 C5.72910769,12.1090781 5.05710769,11.4376934 5.05710769,10.6087704 C5.05710769,9.98784729 5.43495385,9.45492422 5.97341538,9.22661652 L5.97341538,7.11030883 C5.43495385,6.88261652 5.05710769,6.34969345 5.05710769,5.72815499 C5.05710769,4.89984729 5.72910769,4.22784729 6.55803077,4.22784729 C7.17956923,4.22784729 7.71249231,4.60507806 7.94018462,5.1435396 L10.0595692,5.1435396 C10.2872615,4.60507806 10.8208,4.22784729 11.4417231,4.22784729 C12.2706462,4.22784729 12.9426462,4.89984729 12.9426462,5.72815499 C12.9426462,6.35092422 12.5635692,6.88507806 12.0232615,7.11215499 L12.0232615,9.22661652 C12.5617231,9.45492422 12.9389538,9.98784729 12.9389538,10.6087704 M8.99987692,0.16877037 C2.59987692,0.16877037 0.999876923,1.76877037 0.999876923,8.16877037 C0.999876923,14.5687704 2.59987692,16.1687704 8.99987692,16.1687704 C15.3998769,16.1687704 16.9998769,14.5687704 16.9998769,8.16877037 C16.9998769,1.76877037 15.3998769,0.16877037 8.99987692,0.16877037 M10.0595692,6.31338575 L7.94018462,6.31338575 C7.78818462,6.6715396 7.50141538,6.95892422 7.14264615,7.11030883 L7.14264615,9.22661652 C7.50141538,9.37800114 7.78818462,9.66538575 7.94018462,10.024155 L10.0558769,10.024155 C10.2084923,9.66538575 10.4952615,9.37861652 10.8534154,9.22661652 L10.8534154,7.10907806 C10.4971077,6.95646268 10.2109538,6.67030883 10.0595692,6.31338575"></path>
        </g>
    </g>
</svg>