<?xml version="1.0" encoding="UTF-8"?>
<svg width="16px" height="16px" viewBox="0 0 16 16" version="1.1" xmlns="http://www.w3.org/2000/svg" xmlns:xlink="http://www.w3.org/1999/xlink">
    <g id="Page-1" stroke="none" stroke-width="1" fill="none" fill-rule="evenodd">
        <g transform="translate(-1.000000, 0.000000)" fill="#000000" id="Accounts">
            <path d="M11.9333847,7.61317665 L12.7662107,6.96220381 C12.8414178,6.90302447 12.8611443,6.79637835 12.8136775,6.70945868 L12.0240031,5.34340204 C11.9771528,5.25709882 11.8698902,5.22504334 11.783587,5.25709882 L10.8009632,5.65162782 C10.5956848,5.49381622 10.3743787,5.36374494 10.1339626,5.26449624 L9.98354845,4.21899441 C9.97183587,4.12406087 9.88923136,4.05316895 9.78998266,4.05316895 L8.21125024,4.05316895 C8.11261799,4.05316895 8.02939703,4.12406087 8.01768445,4.21899441 L7.86788673,5.26449624 C7.62747062,5.36374494 7.40616452,5.49751493 7.20088615,5.65162782 L6.21826238,5.25709882 C6.127644,5.22134463 6.02469659,5.25709882 5.97722982,5.34340204 L5.18817184,6.70945868 C5.13638991,6.79637835 5.16043152,6.90302447 5.23502215,6.96220381 L6.0678482,7.61317665 C6.05243691,7.73954922 6.04010788,7.87023695 6.04010788,7.99969177 C6.04010788,8.1303795 6.05243691,8.26045078 6.0678482,8.38682335 L5.23502215,9.03841264 C5.16043152,9.09759199 5.14008861,9.2042381 5.18817184,9.29054132 L5.97722982,10.656598 C6.02469659,10.7435176 6.13134271,10.7749567 6.21826238,10.7435176 L7.20088615,10.3483722 C7.40616452,10.5061838 7.62747062,10.6368715 7.86788673,10.7355038 L8.01768445,11.781622 C8.02939703,11.8765556 8.11261799,11.9474475 8.21125024,11.9474475 L9.78998266,11.9474475 C9.88923136,11.9474475 9.97183587,11.8765556 9.98354845,11.781622 L10.1339626,10.7355038 C10.3743787,10.6368715 10.5956848,10.5024851 10.8009632,10.3483722 L11.783587,10.7435176 C11.8742054,10.7786554 11.9771528,10.7435176 12.0240031,10.656598 L12.8136775,9.29054132 C12.8611443,9.2042381 12.8414178,9.09759199 12.7662107,9.03841264 L11.9333847,8.38682335 C11.9494124,8.26045078 11.961125,8.13407821 11.961125,7.99969177 C11.961125,7.86592179 11.9494124,7.73954922 11.9333847,7.61317665 M17,7.99969177 C17,14.4003082 15.4003082,16 8.99969177,16 C2.59969177,16 1,14.4003082 1,7.99969177 C1,1.60030823 2.59969177,0 8.99969177,0 C15.4003082,0 17,1.60030823 17,7.99969177 M10.5272587,7.99969177 C10.5272587,8.84238104 9.84176459,9.52725872 8.99969177,9.52725872 C8.15761896,9.52725872 7.47274128,8.84238104 7.47274128,7.99969177 C7.47274128,7.15823541 8.15761896,6.47274128 8.99969177,6.47274128 C9.84176459,6.47274128 10.5272587,7.15823541 10.5272587,7.99969177"></path>
        </g>
    </g>
</svg>