<?xml version="1.0" encoding="UTF-8"?>
<svg width="32px" height="32px" viewBox="0 0 32 32" version="1.1" xmlns="http://www.w3.org/2000/svg" xmlns:xlink="http://www.w3.org/1999/xlink">
    <!-- Generator: Sketch 49.3 (51167) - http://www.bohemiancoding.com/sketch -->
    <title>favicon-svg</title>
    <desc>Created with Sketch.</desc>
    <defs></defs>
    <g id="Page-1" stroke="none" stroke-width="1" fill="none" fill-rule="evenodd">
        <g transform="translate(-1.000000, 0.000000)" fill="#31323A" id="Registrations">
            <path d="M25.1225846,22.4939278 C25.1225846,22.9270174 24.7693538,23.2769147 24.3348923,23.2769147 L15.3564308,23.2769147 L18.5084308,19.7754953 L24.3348923,19.7754953 C24.7693538,19.7754953 25.1225846,20.126616 25.1225846,20.5584822 L25.1225846,22.4939278 Z M12.3779692,22.5856841 L9.14350769,23.2940425 C8.99458462,23.3270748 8.8592,23.2022863 8.88012308,23.0542528 L9.32443077,19.7840593 C9.37366154,19.4207044 9.61735385,18.9007522 9.86596923,18.6291536 L16.0776615,11.8196148 L19.6678154,15.1216172 L13.4881231,21.945837 C13.2395077,22.218659 12.7385846,22.506162 12.3779692,22.5856841 Z M18.2955077,9.42661123 C18.8838154,8.78676416 19.8819692,8.74027431 20.5281231,9.32262079 L21.7958154,10.4640688 C22.4468923,11.0500855 22.4948923,12.0483938 21.9041231,12.6931345 L20.5416615,14.1808096 L16.9539692,10.881254 L18.2955077,9.42661123 Z M16.9995077,0.167791637 C4.19950769,0.167791637 0.999507692,3.34989916 0.999507692,16.0722122 C0.999507692,28.7957486 4.19950769,31.9766327 16.9995077,31.9766327 C29.7995077,31.9766327 32.9995077,28.7957486 32.9995077,16.0722122 C32.9995077,3.34989916 29.7995077,0.167791637 16.9995077,0.167791637 Z"></path>
        </g>
    </g>
</svg>