<?xml version="1.0" encoding="UTF-8"?>
<svg width="32px" height="32px" viewBox="0 0 32 32" version="1.1" xmlns="http://www.w3.org/2000/svg" xmlns:xlink="http://www.w3.org/1999/xlink">
    <!-- Generator: Sketch 49.3 (51167) - http://www.bohemiancoding.com/sketch -->
    <title>favicon-svg</title>
    <desc>Created with Sketch.</desc>
    <defs></defs>
    <g id="Page-1" stroke="none" stroke-width="1" fill="none" fill-rule="evenodd">
        <g transform="translate(-1.000000, 0.000000)" fill="#31323A" id="Church-Center">
            <path d="M23.2295385,23.6419823 C23.2295385,23.9404961 22.9932308,24.1815092 22.6990769,24.1815092 L19.5581538,24.154594 C19.2578462,24.154594 19.0153846,23.919698 19.0153846,23.6285247 C19.0153846,23.6285247 19.024,23.256606 19.024,20.7620588 C19.024,19.0823073 18.1526154,17.6827183 16.9723077,16.5559513 C15.7932308,17.6827183 14.9218462,19.0823073 14.9218462,20.7620588 C14.9218462,23.256606 14.9292308,23.6285247 14.9292308,23.6285247 C14.9292308,23.919698 14.6867692,24.154594 14.3864615,24.154594 L11.2455385,24.1815092 C10.9526154,24.1815092 10.7150769,23.9404961 10.7150769,23.6419823 C10.7150769,23.6419823 10.3261538,13.3493754 10.6843077,13.0422977 L10.6892308,13.0422977 L10.688,13.0422977 L16.432,8.11437419 C16.7495385,7.84155221 17.2123077,7.84155221 17.5298462,8.11437419 L23.2689231,13.0422977 C23.2689231,13.0422977 23.2652308,13.0435211 23.2627692,13.0435211 C23.6172308,13.3799608 23.2295385,23.6419823 23.2295385,23.6419823 M16.9723077,0.168281004 C4.19446154,0.168281004 0.999384615,3.34427145 0.999384615,16.0457864 C0.999384615,28.7473013 4.19446154,31.9232918 16.9723077,31.9232918 C29.7501538,31.9232918 32.9452308,28.7473013 32.9452308,16.0457864 C32.9452308,3.34427145 29.7501538,0.168281004 16.9723077,0.168281004"></path>
        </g>
    </g>
</svg>