<?xml version="1.0" encoding="UTF-8"?>
<svg width="32px" height="32px" viewBox="0 0 32 32" version="1.1" xmlns="http://www.w3.org/2000/svg" xmlns:xlink="http://www.w3.org/1999/xlink">
    <!-- Generator: Sketch 49.3 (51167) - http://www.bohemiancoding.com/sketch -->
    <title>favicon-svg</title>
    <desc>Created with Sketch.</desc>
    <defs></defs>
    <g id="Page-1" stroke="none" stroke-width="1" fill="none" fill-rule="evenodd">
        <g transform="translate(-1.000000, 0.000000)" fill="#31323A" id="People">
            <path d="M24.8497231,20.8881931 L19.9266462,20.8881931 L19.9266462,19.9094595 C19.9266462,19.371156 19.8183385,18.8524272 19.6017231,18.3826351 C19.5820308,18.3043364 19.5426462,18.2260378 19.5032615,18.1575264 C19.4737231,18.0988024 19.4441846,18.0400784 19.4048,17.9813544 C19.3654154,17.8932683 19.3063385,17.8051823 19.2571077,17.7268836 C19.5918769,17.2766662 20.1137231,16.9732588 20.7143385,16.9732588 L23.0774154,16.9732588 C24.0521846,16.9732588 24.8497231,17.766033 24.8497231,18.7349792 L24.8497231,20.8881931 Z M21.4761846,11.1681453 C22.8164923,11.1681453 23.9032615,12.2484225 23.9032615,13.581947 C23.9032615,14.9154714 22.8164923,15.9957486 21.4761846,15.9957486 C20.1346462,15.9957486 19.0478769,14.9154714 19.0478769,13.581947 C19.0478769,12.2484225 20.1346462,11.1681453 21.4761846,11.1681453 Z M18.9420308,22.8505539 L9.09587692,22.8505539 L9.09587692,19.9143532 C9.09587692,18.2921023 10.4177231,16.976929 12.0497231,16.976929 L15.9881846,16.976929 C17.6189538,16.976929 18.9420308,18.2921023 18.9420308,19.9143532 L18.9420308,22.8505539 Z M14.0337231,9.24126356 C15.8220308,9.24126356 17.2718769,10.6824487 17.2718769,12.4600736 C17.2718769,14.2376984 15.8220308,15.680107 14.0337231,15.680107 C12.2454154,15.680107 10.7955692,14.2376984 10.7955692,12.4600736 C10.7955692,10.6824487 12.2454154,9.24126356 14.0337231,9.24126356 Z M16.9728,0.168403345 C4.19495385,0.168403345 0.999876923,3.34439379 0.999876923,16.0459087 C0.999876923,28.7474237 4.19495385,31.9234141 16.9728,31.9234141 C29.7506462,31.9234141 32.9457231,28.7474237 32.9457231,16.0459087 C32.9457231,3.34439379 29.7506462,0.168403345 16.9728,0.168403345 Z"></path>
        </g>
    </g>
</svg>