<?xml version="1.0" encoding="UTF-8"?>
<svg width="16px" height="16px" viewBox="0 0 16 16" version="1.1" xmlns="http://www.w3.org/2000/svg" xmlns:xlink="http://www.w3.org/1999/xlink">
    <g id="Page-1" stroke="none" stroke-width="1" fill="none" fill-rule="evenodd">
        <g transform="translate(-1.000000, 0.000000)" fill="#000000" id="People">
            <path d="M12.9450148,10.6082246 L10.4793036,10.6082246 L10.4793036,10.1150823 C10.4793036,9.84385411 10.425058,9.58248872 10.3165667,9.34578044 C10.3067039,9.30632907 10.2869782,9.26687769 10.2672525,9.23235773 C10.2524582,9.2027692 10.2376639,9.17318066 10.2179383,9.14359213 C10.1982126,9.09920932 10.168624,9.05482652 10.1439669,9.01537514 C10.3116353,8.78852971 10.5730007,8.63565562 10.8738174,8.63565562 L12.0573588,8.63565562 C12.5455696,8.63565562 12.9450148,9.03510083 12.9450148,9.52331165 L12.9450148,10.6082246 Z M11.2553862,5.7107057 C11.9266761,5.7107057 12.4709819,6.25501145 12.4709819,6.92691775 C12.4709819,7.59882406 11.9266761,8.14312981 11.2553862,8.14312981 C10.5834799,8.14312981 10.0391742,7.59882406 10.0391742,6.92691775 C10.0391742,6.25501145 10.5834799,5.7107057 11.2553862,5.7107057 Z M9.9861614,11.5969748 L5.054739,11.5969748 L5.054739,10.1175481 C5.054739,9.30016479 5.71678246,8.6375049 6.53416572,8.6375049 L8.50673468,8.6375049 C9.32350152,8.6375049 9.9861614,9.30016479 9.9861614,10.1175481 L9.9861614,11.5969748 Z M7.52784733,4.73983192 C8.42351693,4.73983192 9.14966888,5.46598387 9.14966888,6.36165346 C9.14966888,7.25732306 8.42351693,7.98409143 7.52784733,7.98409143 C6.63217774,7.98409143 5.90602579,7.25732306 5.90602579,6.36165346 C5.90602579,5.46598387 6.63217774,4.73983192 7.52784733,4.73983192 Z M8.99987692,0.168403345 C2.60012349,0.168403345 0.999876923,1.76864992 0.999876923,8.16840335 C0.999876923,14.5681568 2.60012349,16.1684033 8.99987692,16.1684033 C15.3996304,16.1684033 16.9998769,14.5681568 16.9998769,8.16840335 C16.9998769,1.76864992 15.3996304,0.168403345 8.99987692,0.168403345 Z"></path>
        </g>
    </g>
</svg>