<?xml version="1.0" encoding="UTF-8"?>
<svg width="32px" height="32px" viewBox="0 0 32 32" version="1.1" xmlns="http://www.w3.org/2000/svg" xmlns:xlink="http://www.w3.org/1999/xlink">
    <!-- Generator: Sketch 49.3 (51167) - http://www.bohemiancoding.com/sketch -->
    <title>favicon-svg</title>
    <desc>Created with Sketch.</desc>
    <defs></defs>
    <g id="Page-1" stroke="none" stroke-width="1" fill="none" fill-rule="evenodd">
        <g transform="translate(-1.000000, 0.000000)" fill="#31323A" id="Developer-API">
            <path d="M27.2534386,12.7802736 L26.1191678,12.1194375 C26.1586207,11.922173 26.1783471,11.7249085 26.1783471,11.5177808 C26.1783471,10.0678867 25.251204,8.83498363 23.9591216,8.38127528 L23.9591216,7.06946638 L21.739896,7.06946638 L21.739896,8.38127528 C20.4478135,8.83498363 19.5206704,10.0678867 19.5206704,11.5177808 C19.5206704,11.7249085 19.5403968,11.922173 19.5798497,12.1194375 L18.4455789,12.7802736 L19.5601233,14.7036024 L20.6845309,14.0526296 C21.2664612,14.5457908 22.0160663,14.8515508 22.8445772,14.8515508 C23.6829513,14.8515508 24.4325563,14.5457908 25.0144866,14.0526296 L26.1388942,14.7036024 L27.2534386,12.7802736 Z M18.0214602,21.0752456 C18.3074937,20.7004431 18.5442111,20.2861876 18.7217492,19.8226161 C18.8992872,19.3689077 19.0077827,18.9053362 19.0472356,18.4417646 L21.4045463,18.0768253 L21.0001541,15.4630707 L18.6428434,15.8181468 C18.2779041,14.9403198 17.6762474,14.1709882 16.8773261,13.5989212 L17.7354267,11.3895589 L15.2696205,10.432826 L14.4115199,12.6323252 C13.4350607,12.5139665 12.4586014,12.6717781 11.5906376,13.0663071 L10.1111539,11.221884 L8.03987671,12.8789058 L9.51936043,14.7331921 C9.24319014,15.1079946 9.01633597,15.52225 8.83879792,15.9759584 C8.6316702,16.5085725 8.5133115,17.0609131 8.48372183,17.6033905 L6.0869582,17.9683298 L6.50121364,20.6708534 L9.03606242,20.2861876 C9.42072818,21.0357927 9.97306877,21.706492 10.683221,22.2095165 L9.81525718,24.4287421 L12.2909266,25.3953381 L13.1588904,23.1662493 C14.1254864,23.284608 15.0920825,23.1267964 15.950183,22.7421306 L17.43953,24.6062801 L19.5108072,22.9393951 L18.0214602,21.0752456 Z M33,15.9993835 C33,28.8006165 29.7993835,32 16.9993835,32 C4.19938355,32 1,28.8006165 1,15.9993835 C1,3.19938355 4.19938355,0 16.9993835,0 C29.7993835,0 33,3.19938355 33,15.9993835 Z M22.8445772,9.85089578 C21.9272972,9.85089578 21.1776922,10.6005009 21.1776922,11.5177808 C21.1776922,12.4350607 21.9272972,13.1846658 22.8445772,13.1846658 C23.7717203,13.1846658 24.5114621,12.4350607 24.5114621,11.5177808 C24.5114621,10.6005009 23.7717203,9.85089578 22.8445772,9.85089578 Z M16.6800616,19.0335581 C16.0586785,20.6314005 14.2537083,21.4204585 12.6460027,20.7990753 C11.0481603,20.1776922 10.2492391,18.372722 10.8804855,16.7748796 C11.5018686,15.167174 13.3068388,14.378116 14.9046812,14.9994991 C16.5123868,15.6208823 17.3014448,17.4258524 16.6800616,19.0335581 Z"></path>
        </g>
    </g>
</svg>