<?xml version="1.0" encoding="UTF-8"?>
<svg width="16px" height="16px" viewBox="0 0 16 16" version="1.1" xmlns="http://www.w3.org/2000/svg" xmlns:xlink="http://www.w3.org/1999/xlink">
    <g id="Page-1" stroke="none" stroke-width="1" fill="none" fill-rule="evenodd">
        <g transform="translate(-1.000000, 0.000000)" fill="#000000" id="Developer-API">
            <path d="M14.1267193,6.39013678 L13.5595839,6.05971874 C13.5793103,5.9610865 13.5891736,5.86245425 13.5891736,5.75889039 C13.5891736,5.03394336 13.125602,4.41749181 12.4795608,4.19063764 L12.4795608,3.53473319 L11.369948,3.53473319 L11.369948,4.19063764 C10.7239068,4.41749181 10.2603352,5.03394336 10.2603352,5.75889039 C10.2603352,5.86245425 10.2701984,5.9610865 10.2899249,6.05971874 L9.72278944,6.39013678 L10.2800616,7.35180119 L10.8422655,7.02631478 C11.1332306,7.2728954 11.5080331,7.42577538 11.9222886,7.42577538 C12.3414756,7.42577538 12.7162782,7.2728954 13.0072433,7.02631478 L13.5694471,7.35180119 L14.1267193,6.39013678 Z M9.51073011,10.5376228 C9.65374687,10.3502215 9.77210557,10.1430938 9.86087459,9.91130803 C9.94964361,9.68445386 10.0038914,9.45266808 10.0236178,9.2208823 L11.2022732,9.03841264 L11.0000771,7.73153535 L9.82142169,7.9090734 C9.63895203,7.47015989 9.33812368,7.08549412 8.93866307,6.7994606 L9.36771335,5.69477943 L8.13481025,5.21641302 L7.70575997,6.31616259 C7.21753034,6.25698324 6.72930071,6.33588904 6.29531882,6.53315353 L5.55557696,5.61094202 L4.51993835,6.4394529 L5.25968022,7.36659603 C5.12159507,7.5539973 5.00816798,7.76112502 4.91939896,7.98797919 C4.8158351,8.25428626 4.75665575,8.53045656 4.74186091,8.80169524 L3.5434791,8.9841649 L3.75060682,10.3354267 L5.01803121,10.1430938 C5.21036409,10.5178964 5.48653439,10.853246 5.84161048,11.1047582 L5.40762859,12.214371 L6.6454633,12.697669 L7.07944519,11.5831246 C7.56274321,11.642304 8.04604123,11.5633982 8.4750915,11.3710653 L9.21976498,12.3031401 L10.2554036,11.4696976 L9.51073011,10.5376228 Z M17,7.99969177 C17,14.4003082 15.3996918,16 8.99969177,16 C2.59969177,16 1,14.4003082 1,7.99969177 C1,1.59969177 2.59969177,0 8.99969177,0 C15.3996918,0 17,1.59969177 17,7.99969177 Z M11.9222886,4.92544789 C11.4636486,4.92544789 11.0888461,5.30025043 11.0888461,5.75889039 C11.0888461,6.21753034 11.4636486,6.59233288 11.9222886,6.59233288 C12.3858601,6.59233288 12.7557311,6.21753034 12.7557311,5.75889039 C12.7557311,5.30025043 12.3858601,4.92544789 11.9222886,4.92544789 Z M8.84003082,9.51677904 C8.52933924,10.3157003 7.62685417,10.7102292 6.82300135,10.3995377 C6.02408014,10.0888461 5.62461953,9.18636101 5.94024273,8.3874398 C6.25093431,7.58358698 7.15341938,7.18905798 7.95234059,7.49974957 C8.75619341,7.81044115 9.1507224,8.71292622 8.84003082,9.51677904 Z"></path>
        </g>
    </g>
</svg>