<?xml version="1.0" encoding="UTF-8"?>
<svg width="16px" height="16px" viewBox="0 0 16 16" version="1.1" xmlns="http://www.w3.org/2000/svg" xmlns:xlink="http://www.w3.org/1999/xlink">
    <g id="Page-1" stroke="none" stroke-width="1" fill="none" fill-rule="evenodd">
        <g transform="translate(-1.000000, 0.000000)" fill="#000000" id="Giving">
            <path d="M9.23825852,11.032017 C9.09339241,11.1343479 8.90660759,11.1343479 8.76235793,11.032017 C7.74952803,10.3175496 3.95341938,7.41961086 6.13504142,5.54189944 C6.8821807,4.89832402 8.02199961,5.00866885 8.71920632,5.70587555 L8.99969177,5.98697746 L9.28079368,5.70587555 C9.97800039,5.00866885 11.1172029,4.89832402 11.8649586,5.54189944 C14.0465806,7.41961086 10.250472,10.3175496 9.23825852,11.032017 M8.99969177,0 C2.59969177,0 1,1.59969177 1,7.99969177 C1,14.3996918 2.59969177,16 8.99969177,16 C15.4003082,16 17,14.3996918 17,7.99969177 C17,1.59969177 15.4003082,0 8.99969177,0"></path>
        </g>
    </g>
</svg>