<?xml version="1.0" encoding="UTF-8"?>
<svg width="32px" height="32px" viewBox="0 0 32 32" version="1.1" xmlns="http://www.w3.org/2000/svg" xmlns:xlink="http://www.w3.org/1999/xlink">
    <!-- Generator: Sketch 49.3 (51167) - http://www.bohemiancoding.com/sketch -->
    <title>favicon-svg</title>
    <desc>Created with Sketch.</desc>
    <defs></defs>
    <g id="Page-1" stroke="none" stroke-width="1" fill="none" fill-rule="evenodd">
        <g transform="translate(-1.000000, 0.000000)" fill="#31323A" id="Giving">
            <path d="M17.476517,22.0640339 C17.1867848,22.2686958 16.8132152,22.2686958 16.5247159,22.0640339 C14.4990561,20.6350992 6.90683876,14.8392217 11.2700828,11.0837989 C12.7643614,9.79664804 15.0439992,10.0173377 16.4384126,11.4117511 L16.9993835,11.9739549 L17.5615874,11.4117511 C18.9560008,10.0173377 21.2344057,9.79664804 22.7299172,11.0837989 C27.0931612,14.8392217 19.5009439,20.6350992 17.476517,22.0640339 M16.9993835,0 C4.19938355,0 1,3.19938355 1,15.9993835 C1,28.7993835 4.19938355,32 16.9993835,32 C29.8006165,32 33,28.7993835 33,15.9993835 C33,3.19938355 29.8006165,0 16.9993835,0"></path>
        </g>
    </g>
</svg>