<?xml version="1.0" encoding="UTF-8"?>
<svg width="16px" height="16px" viewBox="0 0 16 16" version="1.1" xmlns="http://www.w3.org/2000/svg" xmlns:xlink="http://www.w3.org/1999/xlink">
    <g id="Page-1" stroke="none" stroke-width="1" fill="none" fill-rule="evenodd">
        <g transform="translate(-1.000000, 0.000000)" fill="#000000" id="Resources">
            <path d="M12.6979514,7.06982314 C12.6979514,7.33613021 12.4822017,7.55188825 12.2159049,7.55188825 L10.097859,7.55188825 C9.83217857,7.55188825 9.61581242,7.33613021 9.61581242,7.06982314 L9.61581242,4.95169561 C9.61581242,4.68600499 9.83217857,4.4696305 10.097859,4.4696305 L12.2159049,4.4696305 C12.4822017,4.4696305 12.6979514,4.68600499 12.6979514,4.95169561 L12.6979514,7.06982314 Z M12.6979514,11.384984 C12.6979514,11.6512911 12.4822017,11.8670491 12.2159049,11.8670491 L10.097859,11.8670491 C9.83217857,11.8670491 9.61581242,11.6512911 9.61581242,11.384984 L9.61581242,9.26685647 C9.61581242,9.00116585 9.83217857,8.78479135 10.097859,8.78479135 L12.2159049,8.78479135 C12.4822017,8.78479135 12.6979514,9.00116585 12.6979514,9.26685647 L12.6979514,11.384984 Z M8.38295681,7.06982314 C8.38295681,7.33613021 8.16720708,7.55188825 7.90091027,7.55188825 L5.78286435,7.55188825 C5.51718397,7.55188825 5.30081781,7.33613021 5.30081781,7.06982314 L5.30081781,4.95169561 C5.30081781,4.68600499 5.51718397,4.4696305 5.78286435,4.4696305 L7.90091027,4.4696305 C8.16720708,4.4696305 8.38295681,4.68600499 8.38295681,4.95169561 L8.38295681,7.06982314 Z M8.38295681,11.384984 C8.38295681,11.6512911 8.16720708,11.8670491 7.90091027,11.8670491 L5.78286435,11.8670491 C5.51718397,11.8670491 5.30081781,11.6512911 5.30081781,11.384984 L5.30081781,9.26685647 C5.30081781,9.00116585 5.51718397,8.78479135 5.78286435,8.78479135 L7.90091027,8.78479135 C8.16720708,8.78479135 8.38295681,9.00116585 8.38295681,9.26685647 L8.38295681,11.384984 Z M8.99938462,0.168648029 C2.59963119,0.168648029 0.999384615,1.7683398 0.999384615,8.1683398 C0.999384615,14.5689563 2.59963119,16.168648 8.99938462,16.168648 C15.399138,16.168648 16.9993846,14.5689563 16.9993846,8.1683398 C16.9993846,1.7683398 15.399138,0.168648029 8.99938462,0.168648029 Z"></path>
        </g>
    </g>
</svg>