<?xml version="1.0" encoding="UTF-8"?>
<svg width="32px" height="32px" viewBox="0 0 32 32" version="1.1" xmlns="http://www.w3.org/2000/svg" xmlns:xlink="http://www.w3.org/1999/xlink">
    <!-- Generator: Sketch 49.3 (51167) - http://www.bohemiancoding.com/sketch -->
    <title>favicon-svg</title>
    <desc>Created with Sketch.</desc>
    <defs></defs>
    <g id="Page-1" stroke="none" stroke-width="1" fill="none" fill-rule="evenodd">
        <g transform="translate(-1.000000, 0.000000)" fill="#31323A" id="Check-Ins">
            <path d="M24.4177615,13.194529 L16.1708727,21.4401849 C15.4422269,22.1675978 14.2623387,22.1675978 13.5349258,21.4401849 L9.58223849,17.4887305 C8.85482566,16.7625506 8.85482566,15.5826623 9.58223849,14.8540166 C10.3108842,14.1266037 11.4907725,14.1266037 12.2169524,14.8540166 L14.8528992,17.4887305 L21.7830476,10.5598151 C22.5104604,9.83240223 23.6903487,9.83240223 24.4177615,10.5598151 C25.1451743,11.2872279 25.1451743,12.4671162 24.4177615,13.194529 M16.9993835,0 C4.20061645,0 1,3.20061645 1,15.9993835 C1,28.8006165 4.20061645,32 16.9993835,32 C29.8006165,32 33,28.8006165 33,15.9993835 C33,3.20061645 29.8006165,0 16.9993835,0"></path>
        </g>
    </g>
</svg>