<?xml version="1.0" encoding="UTF-8"?>
<svg width="32px" height="32px" viewBox="0 0 32 32" version="1.1" xmlns="http://www.w3.org/2000/svg" xmlns:xlink="http://www.w3.org/1999/xlink">
    <!-- Generator: Sketch 49.3 (51167) - http://www.bohemiancoding.com/sketch -->
    <title>favicon-svg</title>
    <desc>Created with Sketch.</desc>
    <defs></defs>
    <g id="Page-1" stroke="none" stroke-width="1" fill="none" fill-rule="evenodd">
        <g transform="translate(-1.000000, 0.000000)" fill="#31323A" id="Services">
            <path d="M24.9127857,11.3756368 C24.9127857,11.8026093 24.5665587,12.1488363 24.1395861,12.1488363 L13.9705443,12.1488363 C13.5435718,12.1488363 13.1973448,11.8026093 13.1973448,11.3756368 L13.1973448,9.87205735 C13.1973448,9.44386141 13.5435718,9.09885783 13.9705443,9.09885783 L24.1395861,9.09885783 C24.5665587,9.09885783 24.9127857,9.44386141 24.9127857,9.87205735 L24.9127857,11.3756368 Z M24.9127857,16.8638853 C24.9127857,17.2908578 24.5665587,17.6370848 24.1395861,17.6370848 L13.9705443,17.6370848 C13.5435718,17.6370848 13.1973448,17.2908578 13.1973448,16.8638853 L13.1973448,15.3603059 C13.1973448,14.9333333 13.5435718,14.5871063 13.9705443,14.5871063 L24.1395861,14.5871063 C24.5665587,14.5871063 24.9127857,14.9333333 24.9127857,15.3603059 L24.9127857,16.8638853 Z M24.9127857,22.3521338 C24.9127857,22.7791063 24.5665587,23.1253333 24.1395861,23.1253333 L13.9705443,23.1253333 C13.5435718,23.1253333 13.1973448,22.7791063 13.1973448,22.3521338 L13.1973448,20.8485544 C13.1973448,20.4215818 13.5435718,20.0753548 13.9705443,20.0753548 L24.1395861,20.0753548 C24.5665587,20.0753548 24.9127857,20.4215818 24.9127857,20.8485544 L24.9127857,22.3521338 Z M9.67635078,12.3115508 C8.74410705,12.3115508 7.98925878,11.5554791 7.98925878,10.6232354 C7.98925878,9.69221505 8.74410705,8.93614337 9.67635078,8.93614337 C10.6085945,8.93614337 11.3646662,9.69221505 11.3646662,10.6232354 C11.3646662,11.5554791 10.6085945,12.3115508 9.67635078,12.3115508 Z M9.67635078,17.7997993 C8.74410705,17.7997993 7.98925878,17.0437276 7.98925878,16.1127073 C7.98925878,15.1804636 8.74410705,14.4243919 9.67635078,14.4243919 C10.6085945,14.4243919 11.3646662,15.1804636 11.3646662,16.1127073 C11.3646662,17.0437276 10.6085945,17.7997993 9.67635078,17.7997993 Z M9.67635078,23.2880478 C8.74410705,23.2880478 7.98925878,22.5331995 7.98925878,21.6009558 C7.98925878,20.6687121 8.74410705,19.9126404 9.67635078,19.9126404 C10.6085945,19.9126404 11.3646662,20.6687121 11.3646662,21.6009558 C11.3646662,22.5331995 10.6085945,23.2880478 9.67635078,23.2880478 Z M16.915309,0.167913978 C4.1832086,0.167913978 0.999877658,3.35124492 0.999877658,16.0845687 C0.999877658,28.8166691 4.1832086,32 16.915309,32 C29.6486327,32 32.8319637,28.8166691 32.8319637,16.0845687 C32.8319637,3.35124492 29.6486327,0.167913978 16.915309,0.167913978 Z"></path>
        </g>
    </g>
</svg>