<?xml version="1.0" encoding="utf-8"?>
<!-- Generator: Adobe Illustrator 24.0.2, SVG Export Plug-In . SVG Version: 6.00 Build 0)  -->
<svg version="1.1" id="Layer_1" xmlns="http://www.w3.org/2000/svg" xmlns:xlink="http://www.w3.org/1999/xlink" x="0px" y="0px"
	 viewBox="0 0 16 16" style="enable-background:new 0 0 16 16;" xml:space="preserve">
<style type="text/css">
	.st0{fill-rule:evenodd;clip-rule:evenodd;}
</style>
<g>
	<rect x="5.4" y="7.3" class="st0" width="5.3" height="3.3"/>
	<path class="st0" d="M8,0.2c-6.4,0-8,1.6-8,8c0,6.4,1.6,8,8,8c6.4,0,8-1.6,8-8C16,1.8,14.4,0.2,8,0.2z M11.8,11.3
		c0,0.3-0.2,0.5-0.5,0.5H4.6c-0.3,0-0.5-0.2-0.5-0.5V5.7c0-0.3,0.2-0.5,0.5-0.5h0.7V4.6c0-0.2,0.2-0.4,0.4-0.4H6
		c0.2,0,0.4,0.2,0.4,0.4v0.6h3.1V4.6c0-0.2,0.2-0.4,0.4-0.4h0.2c0.2,0,0.4,0.2,0.4,0.4v0.6h0.7c0.3,0,0.5,0.2,0.5,0.5V11.3z"/>
</g>
</svg>
