<?xml version="1.0" encoding="UTF-8"?>
<svg width="16px" height="16px" viewBox="0 0 16 16" version="1.1" xmlns="http://www.w3.org/2000/svg" xmlns:xlink="http://www.w3.org/1999/xlink">
    <g id="Page-1" stroke="none" stroke-width="1" fill="none" fill-rule="evenodd">
        <g transform="translate(-1.000000, 0.000000)" fill="#000000" id="Church-Center">
            <path d="M12.1333036,11.9956812 C12.1333036,12.1460896 12.0149494,12.2675259 11.8676232,12.2675259 L10.2944994,12.2539645 C10.144091,12.2539645 10.0226548,12.1356103 10.0226548,11.9889005 C10.0226548,11.9889005 10.0269698,11.8015065 10.0269698,10.5446102 C10.0269698,9.69825481 9.59053888,8.9930614 8.99938462,8.4253314 C8.40884678,8.9930614 7.9724159,9.69825481 7.9724159,10.5446102 C7.9724159,11.8015065 7.97611447,11.9889005 7.97611447,11.9889005 C7.97611447,12.1356103 7.85467819,12.2539645 7.70426981,12.2539645 L6.13114606,12.2675259 C5.98443624,12.2675259 5.86546568,12.1460896 5.86546568,11.9956812 C5.86546568,11.9956812 5.67067449,6.80967413 5.85005498,6.65495075 L5.85252069,6.65495075 L5.85190426,6.65495075 L8.72877281,4.17197957 C8.88781118,4.03451617 9.11958804,4.03451617 9.27862641,4.17197957 L12.1530292,6.65495075 C12.1530292,6.65495075 12.15118,6.65556718 12.1499471,6.65556718 C12.3274783,6.82508483 12.1333036,11.9956812 12.1333036,11.9956812 M8.99938462,0.168281004 C2.59963119,0.168281004 0.999384615,1.76852757 0.999384615,8.168281 C0.999384615,14.5680344 2.59963119,16.168281 8.99938462,16.168281 C15.399138,16.168281 16.9993846,14.5680344 16.9993846,8.168281 C16.9993846,1.76852757 15.399138,0.168281004 8.99938462,0.168281004"></path>
        </g>
    </g>
</svg>